<svg width="1200" height="800" viewBox="0 0 1200 800" fill="none" xmlns="http://www.w3.org/2000/svg">
  <rect width="1200" height="800" fill="#F46F54"/>
  <rect y="520" width="1200" height="280" fill="#0F3A2B"/>
  <path d="M0 520H1200" stroke="#0A2A20" stroke-width="18" stroke-linecap="round"/>
  <circle cx="1040" cy="150" r="90" fill="#E8F53A" opacity="0.65"/>

  <!-- Service van silhouette -->
  <rect x="720" y="400" width="360" height="170" rx="28" fill="#F2F4F7"/>
  <rect x="760" y="440" width="90" height="90" rx="14" fill="#4E97FF"/>
  <rect x="880" y="440" width="90" height="90" rx="14" fill="#0E7E54"/>
  <rect x="760" y="522" width="230" height="28" rx="12" fill="#D8E6EF"/>
  <circle cx="820" cy="568" r="34" fill="#0A2A20"/>
  <circle cx="956" cy="568" r="34" fill="#0A2A20"/>
  <path d="M1010 458H1062" stroke="#0A2A20" stroke-width="12" stroke-linecap="round"/>

  <!-- Worker 1 -->
  <rect x="450" y="360" width="190" height="190" rx="40" fill="#4E97FF"/>
  <circle cx="540" cy="330" r="38" fill="#F5C28D"/>
  <path d="M518 324C526 306 558 302 572 320" stroke="#0A2A20" stroke-width="12" stroke-linecap="round"/>
  <rect x="470" y="424" width="52" height="154" rx="22" transform="rotate(-12 470 424)" fill="#0A2A20"/>
  <rect x="572" y="424" width="52" height="154" rx="22" transform="rotate(12 572 424)" fill="#0A2A20"/>
  <rect x="446" y="550" width="90" height="34" rx="16" transform="rotate(-8 446 550)" fill="#071710"/>
  <rect x="590" y="554" width="90" height="34" rx="16" transform="rotate(10 590 554)" fill="#071710"/>
  <rect x="614" y="450" width="88" height="18" rx="9" transform="rotate(12 614 450)" fill="#0E7E54"/>
  <rect x="416" y="452" width="88" height="18" rx="9" transform="rotate(-12 416 452)" fill="#0E7E54"/>
  <rect x="512" y="460" width="16" height="112" rx="8" fill="#F5C28D"/>
  <rect x="634" y="470" width="16" height="102" rx="8" transform="rotate(12 634 470)" fill="#F5C28D"/>

  <!-- Worker 2 -->
  <rect x="240" y="400" width="180" height="170" rx="36" fill="#0E7E54"/>
  <circle cx="330" cy="374" r="34" fill="#F5C28D"/>
  <path d="M310 370C318 354 346 352 360 368" stroke="#0A2A20" stroke-width="10" stroke-linecap="round"/>
  <rect x="264" y="454" width="46" height="140" rx="20" transform="rotate(-10 264 454)" fill="#0A2A20"/>
  <rect x="360" y="454" width="46" height="140" rx="20" transform="rotate(12 360 454)" fill="#0A2A20"/>
  <rect x="246" y="566" width="84" height="32" rx="16" transform="rotate(-8 246 566)" fill="#071710"/>
  <rect x="374" y="570" width="84" height="32" rx="16" transform="rotate(10 374 570)" fill="#071710"/>
  <rect x="390" y="460" width="80" height="18" rx="9" transform="rotate(12 390 460)" fill="#4E97FF"/>
  <rect x="226" y="462" width="80" height="18" rx="9" transform="rotate(-12 226 462)" fill="#4E97FF"/>
  <rect x="312" y="470" width="14" height="106" rx="7" fill="#F5C28D"/>
  <rect x="420" y="480" width="14" height="96" rx="7" transform="rotate(12 420 480)" fill="#F5C28D"/>

  <!-- Waste station -->
  <rect x="60" y="520" width="140" height="150" rx="24" fill="#E8F53A" stroke="#0A2A20" stroke-width="10"/>
  <path d="M60 530C82 506 178 506 200 530" stroke="#0A2A20" stroke-width="10" stroke-linecap="round"/>
  <rect x="92" y="600" width="34" height="60" rx="12" fill="#4E97FF"/>
  <rect x="140" y="600" width="34" height="60" rx="12" fill="#4E97FF"/>
  <rect x="88" y="578" width="92" height="12" rx="6" fill="#0A2A20" opacity="0.5"/>

  <path d="M0 800H1200" stroke="#071710" stroke-width="24"/>
</svg>
