<svg width="1200" height="800" viewBox="0 0 1200 800" fill="none" xmlns="http://www.w3.org/2000/svg">
  <rect width="1200" height="800" fill="#F46F54"/>
  <rect y="520" width="1200" height="280" fill="#104332"/>
  <path d="M0 520H1200" stroke="#0A2A20" stroke-width="18" stroke-linecap="round"/>
  <circle cx="180" cy="150" r="90" fill="#E8F53A" opacity="0.65"/>

  <!-- Simple house silhouette -->
  <rect x="820" y="320" width="200" height="150" rx="20" fill="#F2F4F7"/>
  <rect x="846" y="350" width="58" height="90" rx="12" fill="#D8E6EF"/>
  <rect x="928" y="350" width="60" height="90" rx="12" fill="#D8E6EF"/>
  <polygon points="820,320 920,250 1020,320" fill="#E4D8C8"/>

  <!-- Person crouching -->
  <rect x="520" y="360" width="200" height="188" rx="44" fill="#4E97FF"/>
  <circle cx="610" cy="330" r="40" fill="#F5C28D"/>
  <path d="M586 324C596 306 632 302 646 320" stroke="#0A2A20" stroke-width="12" stroke-linecap="round"/>
  <rect x="536" y="426" width="56" height="158" rx="24" transform="rotate(-10 536 426)" fill="#0A2A20"/>
  <rect x="640" y="426" width="56" height="158" rx="24" transform="rotate(12 640 426)" fill="#0A2A20"/>
  <rect x="514" y="552" width="94" height="34" rx="16" transform="rotate(-8 514 552)" fill="#071710"/>
  <rect x="660" y="556" width="94" height="34" rx="16" transform="rotate(10 660 556)" fill="#071710"/>
  <rect x="684" y="448" width="80" height="18" rx="9" transform="rotate(12 684 448)" fill="#0E7E54"/>
  <rect x="480" y="450" width="80" height="18" rx="9" transform="rotate(-12 480 450)" fill="#0E7E54"/>
  <rect x="562" y="458" width="16" height="114" rx="8" fill="#F5C28D"/>
  <rect x="686" y="468" width="16" height="104" rx="8" transform="rotate(12 686 468)" fill="#F5C28D"/>

  <!-- Dog in yard -->
  <path d="M380 566C380 530 350 506 312 512L276 518C254 522 238 540 238 560C238 594 270 614 314 614C352 614 380 594 380 566Z" fill="#133D2E"/>
  <circle cx="300" cy="508" r="20" fill="#133D2E"/>
  <path d="M284 504C288 490 304 480 320 486" stroke="#0A2A20" stroke-width="10" stroke-linecap="round"/>
  <rect x="260" y="574" width="118" height="74" rx="20" fill="#4E97FF"/>
  <rect x="276" y="610" width="46" height="36" rx="14" fill="#0A2A20"/>
  <rect x="334" y="610" width="46" height="36" rx="14" fill="#0A2A20"/>

  <!-- Yard bag -->
  <rect x="990" y="560" width="120" height="120" rx="22" fill="#E8F53A" stroke="#0A2A20" stroke-width="10"/>
  <path d="M990 570C1010 548 1090 548 1110 570" stroke="#0A2A20" stroke-width="10" stroke-linecap="round"/>
  <rect x="1016" y="642" width="32" height="50" rx="12" fill="#4E97FF"/>
  <rect x="1056" y="642" width="32" height="50" rx="12" fill="#4E97FF"/>
  <rect x="1012" y="622" width="72" height="12" rx="6" fill="#0A2A20" opacity="0.5"/>

  <path d="M0 800H1200" stroke="#071710" stroke-width="24"/>
</svg>
